<?xml version="1.0" encoding="UTF-8"?>
<!-- Generator: Adobe Illustrator 19.0.0, SVG Export Plug-In . SVG Version: 6.00 Build 0)  -->
<svg width="500" height="200" version="1.1" viewBox="0 0 7500 3e3" xml:space="preserve" xmlns="http://www.w3.org/2000/svg" xmlns:cc="http://creativecommons.org/ns#" xmlns:dc="http://purl.org/dc/elements/1.1/" xmlns:rdf="http://www.w3.org/1999/02/22-rdf-syntax-ns#">
  <title>UZDoom Logo - Banner</title>
  <style type="text/css">
    svg { background: #fff; fill: #000; }

    @media (prefers-color-scheme: dark) {
      svg { background: none; fill: #fff; }
    }

    @media (prefers-color-scheme: light) {
      svg { background: none; fill: #000; }
    }

    .st0 { fill-rule: evenodd; clip-rule: evenodd; }
  </style>
  <g transform="matrix(1 0 0 1 170.28 -233.27)">
    <path d="m5215.6 2200.2v171.86h68.848c19.614 0 36.698-3.5367 51.211-10.635 14.502-7.0886 25.744-17.133 33.633-30.059 7.889-12.93 11.836-28.102 11.836-45.469 0-15.774-3.6265-30.194-10.84-43.184-7.2297-13.013-18.038-23.372-32.344-31.025-14.354-7.6735-32.196-11.484-53.496-11.484zm20.801 15.938h48.047c16.294 0 30.042 2.9949 41.279 8.9649s19.825 14.22 25.723 24.726c5.8983 10.506 8.8476 22.507 8.8476 36.035 0 13.216-2.9 25.128-8.7011 35.713-5.8081 10.589-14.339 18.987-25.576 25.195-11.237 6.2105-25.093 9.3164-41.572 9.3164h-48.047z" />
    <path d="m3735.7 2200.2v17.115h71.072v154.73h21.975v-154.73h71.074v-17.115z" />
    <path d="m3596.2 2200.2v171.85h137.15v-17.115h-115.18l0.01-154.74z" />
    <path d="m3352.8 2200.2v86.639c0 10.931 1.4649 21.547 4.3985 31.838 2.9407 10.327 7.6483 19.586 14.113 27.742 6.4924 8.2024 15.278 14.723 26.285 19.56 11.046 4.8596 24.507 7.2617 40.354 7.2617 15.471 0 28.648-2.3219 39.508-7.0195 10.813-4.6744 19.631-10.988 26.406-18.936 6.7531-7.9233 11.658-17.155 14.699-27.648 3.0253-10.455 4.5391-21.389 4.5391-32.797v-86.639h-21.975v86.641c0 8.5041-1.0189 16.888-3.0547 25.154-2.0324 8.2264-5.385 15.606-10.072 22.17-4.6563 6.5158-11.048 11.763-19.232 15.752-8.1266 3.958-18.489 5.9707-31.098 5.9707-12.24 0-22.371-1.9313-30.406-5.7383-8.0912-3.8266-14.477-8.993-19.225-15.516-4.7831-6.5631-8.2309-13.98-10.348-22.287-2.1312-8.3416-3.1953-16.839-3.1953-25.504v-86.639z" />
    <path d="m4389.1 2200.2-84.58 171.86h23.672l24.932-53.027h89.707l24.902 53.027h23.379l-83.994-171.86zm8.877 23.438 37.588 79.922h-75.205z" />
    <path d="m4052.2 2200.2v171.85h21.975v-135.41l70.709 104.61h13.59l70.428-104.59v135.39h21.977v-171.85h-21.717l-77.76 115.14-77.205-115.14z" />
    <path d="m4996.9 2200.2v17.113h131.89l-134.14 139.98v14.752h160.47v-17.113h-132.19l132.47-139.98v-14.748z" />
    <path d="m4725.5 2200.2v171.85h136.31v-17.113h-114.33l-0.01-62.404h97.48v-16.4h-97.48v-58.818h111.81v-17.113z" />
    <path d="m4506 2200.2v17.113h71.072v154.73h21.977v-154.73h71.074v-17.113z" />
    <path d="m3955.2 2200.2v171.85h21.975v-171.85z" />
    <path d="m5923 2200.2v171.85h21.977v-135.4l70.709 104.6h13.59l70.426-104.59v135.39h21.975v-171.85h-21.715l-77.762 115.14-77.201-115.14z" />
    <path d="m5766 2199c-13.436 0-25.932 2.3657-37.5 7.1192-11.545 4.7479-21.667 11.199-30.293 19.336-8.6239 8.1374-15.299 17.426-20.039 27.832-4.7508 10.414-7.1484 21.38-7.1484 32.842 0 10.988 2.3009 21.676 6.8555 32.08 4.5534 10.4 10.996 19.773 19.336 28.066 8.3502 8.3102 18.331 14.889 29.883 19.717 11.576 4.8418 24.465 7.2364 38.643 7.2364 13.429 0 25.929-2.3263 37.5-7.002 11.544-4.6652 21.61-11.073 30.146-19.219 8.5285-8.1307 15.176-17.401 19.922-27.803 4.7436-10.413 7.1192-21.378 7.1192-32.842 0-10.826-2.2714-21.432-6.8262-31.758-4.5522-10.315-10.952-19.664-19.189-28.037-8.2545-8.3858-18.19-15.078-29.736-20.068-11.582-5-24.46-7.5-38.642-7.5zm-0.2637 16.436c10.858 0 20.776 1.9203 29.766 5.7422 8.9896 3.8197 16.817 9.0745 23.467 15.762 6.645 6.6866 11.761 14.242 15.322 22.676 3.5539 8.4393 5.332 17.282 5.332 26.514 0 8.7559-1.6973 17.346-5.0684 25.781-3.3711 8.4393-8.274 16.028-14.736 22.793-6.46 6.7677-14.238 12.2-23.32 16.26-9.0866 4.06-19.343 6.0645-30.762 6.0645-10.865 0-20.83-1.9272-29.912-5.8301-9.0867-3.8983-16.914-9.1531-23.467-15.762-6.5571-6.6034-11.62-14.158-15.176-22.676-3.5606-8.5156-5.332-17.399-5.332-26.631 0-8.7537 1.7173-17.37 5.1855-25.81 3.4635-8.437 8.4518-16.026 14.912-22.793 6.4624-6.763 14.204-12.131 23.291-16.113 9.082-3.9768 19.261-5.9765 30.498-5.9765z" />
    <path d="m5527.2 2199c-13.435 0-25.962 2.3656-37.529 7.1192-11.547 4.7478-21.638 11.199-30.264 19.336-8.6265 8.1375-15.326 17.427-20.068 27.832-4.7484 10.414-7.1191 21.38-7.1191 32.842 0 10.988 2.2716 21.676 6.8261 32.08 4.5534 10.4 11.026 19.773 19.365 28.066 8.3475 8.3096 18.305 14.89 29.854 19.717 11.578 4.8417 24.465 7.2364 38.643 7.2364 13.431 0 25.961-2.3263 37.529-7.002 11.546-4.6651 21.61-11.073 30.146-19.219 8.5284-8.1307 15.178-17.4 19.922-27.803 4.7458-10.413 7.1192-21.378 7.1192-32.842 0-10.826-2.3007-21.432-6.8555-31.758-4.552-10.315-10.952-19.664-19.19-28.037-8.2565-8.3851-18.162-15.078-29.707-20.068-11.584-5-24.49-7.5-38.672-7.5zm-0.2929 16.436c10.86 0 20.805 1.9203 29.795 5.7422 8.9895 3.8197 16.817 9.0745 23.467 15.762 6.645 6.6866 11.734 14.242 15.293 22.676 3.5558 8.4393 5.332 17.282 5.332 26.514 0 8.7559-1.668 17.346-5.0391 25.781-3.371 8.4393-8.3031 16.028-14.766 22.793-6.46 6.7677-14.238 12.2-23.32 16.26-9.0866 4.06-19.34 6.0645-30.762 6.0645-10.862 0-20.83-1.9272-29.912-5.8301-9.0866-3.8983-16.882-9.1531-23.438-15.762-6.5573-6.6034-11.62-14.187-15.176-22.705-3.5584-8.5156-5.3321-17.37-5.3321-26.602 0-8.7537 1.7174-17.37 5.1856-25.81 3.4635-8.437 8.4225-16.026 14.883-22.793 6.4624-6.763 14.233-12.131 23.32-16.113 9.082-3.9768 19.233-5.9765 30.469-5.9765z" />
  </g>
  <g transform="matrix(1 0 0 1 -127.98 677.56)">
    <path d="m5922 679.67c-133.5 0.5183-245.65 100.93-245.65 219.02 0 118.07 111.71 214.8 245.1 214.8 133.96 0 244.5-96.798 244.51-214.8 0.6046-117.58-110.36-219.02-243.93-219.02zm0.029 102.63c71.699 0 124.04 49.873 124.04 116.4 0 67.047-52.306 116.89-124.63 116.89h-1.0547c-71.133-3e-4 -123.57-50.204-123.57-116.89 0-66.475 52.903-116.4 125.21-116.4z" />
    <path d="m4585.4 1113.5v-204.08h154.71v78.701c43.185-0.28856 82.861-2.9197 119.51-6.888 42.405-6.8323 73.582-25.705 94.621-53.95 21.062-28.276 31.985-66.346 31.985-111.8 0-45.449-10.924-83.521-31.985-111.8-21.048-28.258-52.24-47.135-94.674-53.958-36.577-4.6236-76.244-7.2933-119.46-7.5841v193.04h-154.71v-317.68l210.38-0.7321 0.031 8.9045v-8.9094c25.209 0 50.415 1.4266 74.82 4.2848 6e-4 6e-5 9e-4 -6e-5 0 0 153.29 16.65 276.12 142.63 276.12 293.73 0 151.73-121.98 277.75-276.06 294.43h-0.028c-24.416 2.861-49.645 4.2881-75.689 4.2881z" />
    <path d="m5410 679.66c-133.5 0.5183-245.65 100.93-245.65 219.02 0 118.07 111.71 214.8 245.1 214.8 133.96 0 244.5-96.798 244.51-214.8 0.6046-117.58-110.36-219.02-243.93-219.02zm0.029 102.63c71.699 0 124.04 49.873 124.04 116.4 0 67.047-52.306 116.89-124.63 116.89h-1.0547c-71.133-3e-4 -123.57-50.204-123.57-116.89 0-66.475 52.903-116.4 125.21-116.4z" />
    <path d="m6203.6 1113.6v-429.49h131.89l122.06 251.63 120.93-251.63h132.5l-0.01 429.49h-113.93l-0.5327-216.35-106.42 214.85h-65.608l-105.9-214.86-1.0639 216.37z" />
    <path d="m3638.1 1113.5c-78.543-0.3569-144.45-19.548-192.43-55.854-47.976-36.299-77.61-89.802-83.602-156.63-1.6843-15.783-2.5297-31.582-2.5297-48.064v-0.01l0.8513-335.47h154.7l-0.8498 340.43v0.0183c0 46.458 11.431 78.448 32.005 99.025 20.577 20.58 51.137 30.582 91.889 30.582 40.325 0 70.896-10.002 91.47-30.582 20.575-20.579 31.991-52.539 31.587-98.978v-0.0425l0.8497-340.45h154.71l-0.8563 335.48c0 16.497-0.8454 32.313-2.5346 48.111-5.9977 66.789-35.399 120.44-83.161 156.83-47.782 36.407-113.51 55.607-192.07 55.607h-0.016z" />
    <path d="m4127.1 835.21 147.13-194.56h-293.46v-123.85h574.77l-241.34 318.42z" />
    <path d="m3916.6 1113.5 154.32-204.08h186.96l-60.8 80.223h322.54v123.85z" />
  </g>
  <path id="XMLID_25_" class="st0" d="m1764.3 2622.9-847.96-489.42v-1761.3l643.5 371.49v255.37l-231.44-133.94v912.46l-325.17 237.83 356.83-144.82 404.15 233.24 404.15-233.24 356.83 144.82-325.17-237.83v-912.46l-231.44 133.94v-255.37l643.5-371.49v1761.3m-643.32-1024 168.03-96.876v765.03l-372.48 215.79-372.39-215.79v-765.03l168.03 96.876v613.28l204.28 117.83 204.46-117.83v-613.28z" />
  <metadata>
    <rdf:RDF>
      <cc:Work rdf:about="">
        <cc:license rdf:resource="http://creativecommons.org/licenses/by-sa/4.0/" />
        <dc:creator>
          <cc:Agent>
            <dc:title>Cardboard Marty</dc:title>
          </cc:Agent>
        </dc:creator>
        <dc:date>2025</dc:date>
        <dc:rights>
          <cc:Agent>
            <dc:title>UZDoom</dc:title>
          </cc:Agent>
        </dc:rights>
        <dc:title>UZDoom Logo - Banner</dc:title>
      </cc:Work>
      <cc:License rdf:about="http://creativecommons.org/licenses/by-sa/4.0/">
        <cc:permits rdf:resource="http://creativecommons.org/ns#Reproduction" />
        <cc:permits rdf:resource="http://creativecommons.org/ns#Distribution" />
        <cc:requires rdf:resource="http://creativecommons.org/ns#Notice" />
        <cc:requires rdf:resource="http://creativecommons.org/ns#Attribution" />
        <cc:permits rdf:resource="http://creativecommons.org/ns#DerivativeWorks" />
        <cc:requires rdf:resource="http://creativecommons.org/ns#ShareAlike" />
      </cc:License>
    </rdf:RDF>
  </metadata>
</svg>
