<?xml version="1.0" encoding="UTF-8"?>
<!-- Generator: Adobe Illustrator 19.0.0, SVG Export Plug-In . SVG Version: 6.00 Build 0)  -->
<svg version="1.1" viewBox="0 0 3e3 3e3" xml:space="preserve" xmlns="http://www.w3.org/2000/svg" xmlns:xlink="http://www.w3.org/1999/xlink" xmlns:cc="http://creativecommons.org/ns#" xmlns:dc="http://purl.org/dc/elements/1.1/" xmlns:rdf="http://www.w3.org/1999/02/22-rdf-syntax-ns#">
  <title>UZDoom Logo - Pride</title>
  <defs>
    <style>
      .cls-1 {
        isolation: isolate;
      }

      .cls-2 {
        opacity: .2;
      }

      .cls-3 {
        fill: url(#linear-gradient-2);
      }

      .cls-3,
      .cls-4,
      .cls-5 {
        fill-rule: evenodd;
      }

      .cls-4 {
        fill: url(#linear-gradient);
      }

      .cls-6,
      .cls-7 {
        mix-blend-mode: soft-light;
      }

      .cls-7 {
        fill: #fff;
      }

      .cls-8 {
        fill: none;
      }

      .cls-9 {
        fill: #efefef;
      }

      .cls-5 {
        fill: url(#linear-gradient-3);
      }
    </style>
    <linearGradient id="linear-gradient" x2="1885.3" y1="1252.1" y2="1252.1" gradientUnits="userSpaceOnUse">
      <stop stop-color="#780089" offset="0" />
      <stop stop-color="#76018a" offset=".06504" />
      <stop stop-color="#6f0591" offset=".08846" />
      <stop stop-color="#630c9d" offset=".10516" />
      <stop stop-color="#5217ad" offset=".11867" />
      <stop stop-color="#3c25c3" offset=".13023" />
      <stop stop-color="#2235dd" offset=".14028" />
      <stop stop-color="#0249fc" offset=".14934" />
      <stop stop-color="#004bff" offset=".15" />
      <stop stop-color="#004bfd" offset=".2033" />
      <stop stop-color="#004df6" offset=".2225" />
      <stop stop-color="#004fea" offset=".23619" />
      <stop stop-color="#0054d9" offset=".24726" />
      <stop stop-color="#0059c3" offset=".25674" />
      <stop stop-color="#005fa8" offset=".26514" />
      <stop stop-color="#006787" offset=".27274" />
      <stop stop-color="#007062" offset=".27973" />
      <stop stop-color="#007a39" offset=".28594" />
      <stop stop-color="#00821b" offset=".28985" />
      <stop stop-color="#01821a" offset=".36816" />
      <stop stop-color="#08851a" offset=".39637" />
      <stop stop-color="#148a18" offset=".41648" />
      <stop stop-color="#259117" offset=".43275" />
      <stop stop-color="#3b9b14" offset=".44668" />
      <stop stop-color="#56a711" offset=".45902" />
      <stop stop-color="#77b40e" offset=".47018" />
      <stop stop-color="#9cc50a" offset=".48044" />
      <stop stop-color="#c7d705" offset=".48998" />
      <stop stop-color="#f5eb00" offset=".49845" />
      <stop stop-color="#ffef00" offset=".5" />
      <stop stop-color="#ffed00" offset=".60819" />
      <stop stop-color="#ffe600" offset=".64715" />
      <stop stop-color="#ffda00" offset=".67494" />
      <stop stop-color="#ffc900" offset=".69739" />
      <stop stop-color="#ffb300" offset=".71663" />
      <stop stop-color="#f90" offset=".73335" />
      <stop stop-color="#ff8e00" offset=".73909" />
      <stop stop-color="#fe8c00" offset=".78558" />
      <stop stop-color="#fd8500" offset=".80233" />
      <stop stop-color="#fb7900" offset=".81426" />
      <stop stop-color="#f86800" offset=".82391" />
      <stop stop-color="#f45200" offset=".83218" />
      <stop stop-color="#ef3700" offset=".8395" />
      <stop stop-color="#ea1700" offset=".84595" />
      <stop stop-color="#e60000" offset=".85" />
    </linearGradient>
    <linearGradient id="linear-gradient-2" x2="1885.3" y1="1252.1" y2="1252.1" gradientUnits="userSpaceOnUse">
      <stop stop-color="#fff" offset="0" />
      <stop stop-color="#1eafc0" stop-opacity="0" offset=".18782" />
    </linearGradient>
    <linearGradient id="linear-gradient-3" x1="942.66" x2="942.66" y1="2503.2" y2="1.0001" gradientUnits="userSpaceOnUse">
      <stop offset=".11675" />
      <stop stop-color="#0a0a0a" stop-opacity=".84772" offset=".17766" />
      <stop stop-color="#fff" stop-opacity="0" offset="1" />
    </linearGradient>
  </defs>
  <g class="cls-1" transform="translate(557.34 248.41)">
    <g id="MAIN">
      <path class="cls-4" d="m942.66 2503.2-942.65-544.12-0.00187-1958.1 715.44 412.98v283.95l-257.26-148.89v1014.4l-361.47 264.41 396.68-160.97 449.27 259.34 449.27-259.34 396.68 160.97-361.47-264.41v-1014.4l-257.26 148.89v-283.95l715.44-412.98v1958.1l-942.65 544.12m227.31-1682.5 186.84-107.74v850.48l-414.15 239.94-413.97-239.94v-850.48l186.84 107.74v681.85l227.13 130.99 227.31-130.99z" fill="url(#linear-gradient)" />
      <g class="cls-6">
        <path class="cls-3" d="m942.66 2503.2-942.65-544.12-0.00187-1958.1 715.44 412.98v283.95l-257.26-148.89v1014.4l-361.47 264.41 396.68-160.97 449.27 259.34 449.27-259.34 396.68 160.97-361.47-264.41v-1014.4l-257.26 148.89v-283.95l715.44-412.98v1958.1l-942.65 544.12m227.31-1682.5 186.84-107.74v850.48l-414.15 239.94-413.97-239.94v-850.48l186.84 107.74v681.85l227.13 130.99 227.31-130.99z" fill="url(#linear-gradient-2)" />
      </g>
      <polygon class="cls-8" points="1427.1 1301.4 1885.3 1301.4 1885.3 1.0001 1169.9 413.98 1169.9 697.93 1427.1 549.03" />
      <path class="cls-8" d="m458.18 1231.8v-682.79l257.26 148.89v-283.95l-715.44-412.98 8.5e-4 878.44c106.01 111.8 277.26 262.35 458.18 352.39z" />
      <path class="cls-8" d="m528.69 1263.5c62.74 25.01 125.77 41.348 186.84 44.987v-487.74l-186.84-107.74z" />
      <polygon class="cls-8" points="942.66 2503.2 945.2 2501.7 940.11 2501.7" />
      <polygon class="cls-8" points="1170 1301.4 1356.8 1301.4 1356.8 713 1170 820.74" />
      <path class="cls-7" d="m1885.3 1959.1 8e-4 -657.62h-458.18v262.04l361.47 264.41-396.68-160.97-449.27 259.34-449.27-259.34-396.68 160.97 361.47-264.41v-331.66c-180.92-90.042-352.17-240.59-458.18-352.39l0.00104 1079.6 940.11 542.65h5.0934l940.11-542.65z" />
      <path class="cls-7" d="m528.69 1563.5 413.97 239.94 414.15-239.94v-262.04h-186.84v201.14l-227.31 130.99-227.13-130.99v-194.11c-61.067-3.6384-124.1-19.977-186.84-44.987z" />
    </g>
    <g id="OUTLINE">
      <g class="cls-2">
        <path class="cls-9" d="m1322.8 770.85v772.04l-380.14 220.24-379.97-220.24v-772.04l118.84 68.527v681.85l261.12 150.59 261.31-150.59v-681.85l118.84-68.527m34-58.853-186.84 107.74v681.85l-227.31 130.99-227.13-130.99v-681.85l-186.84-107.74v850.48l413.97 239.94 414.15-239.94z" />
      </g>
      <g class="cls-2">
        <path class="cls-9" d="m1851.3 58.884v1771.7l-390.18-285.4v-1056.2l-257.26 148.9v-205.35l647.44-373.73m-1817.3 3e-5 647.44 373.73v205.35l-206.23-119.36-51.031-29.536v1056.2l-390.18 285.4-0.00171-1771.7m1360.5 1644.8 456.78 185.35v49.408l-908.65 524.49-908.65-524.49-6e-5 -49.408 456.78-185.35 451.88 260.85 451.88-260.85m490.78-1703.7-715.44 412.98v283.95l257.26-148.9v1014.4l361.47 264.41-396.68-160.97-449.27 259.34-449.27-259.34-396.68 160.97 361.47-264.41v-1014.4l257.26 148.9v-283.95l-715.44-412.98 0.00189 1958.1 942.65 544.12 942.65-544.12z" />
      </g>
    </g>
    <g class="cls-6">
      <path class="cls-5" d="m942.66 2503.2-942.65-544.12-0.00187-1958.1 715.44 412.98v283.95l-257.26-148.89v1014.4l-361.47 264.41 396.68-160.97 449.27 259.34 449.27-259.34 396.68 160.97-361.47-264.41v-1014.4l-257.26 148.89v-283.95l715.44-412.98v1958.1l-942.65 544.12m227.31-1682.5 186.84-107.74v850.48l-414.15 239.94-413.97-239.94v-850.48l186.84 107.74v681.85l227.13 130.99 227.31-130.99z" fill="url(#linear-gradient-3)" />
    </g>
  </g>
  <metadata>
    <rdf:RDF>
      <cc:Work rdf:about="">
        <cc:license rdf:resource="http://creativecommons.org/licenses/by-sa/4.0/" />
        <dc:creator>
          <cc:Agent>
            <dc:title>Cardboard Marty</dc:title>
          </cc:Agent>
        </dc:creator>
        <dc:date>2025</dc:date>
        <dc:rights>
          <cc:Agent>
            <dc:title>UZDoom</dc:title>
          </cc:Agent>
        </dc:rights>
        <dc:title>UZDoom Logo - Pride</dc:title>
      </cc:Work>
      <cc:License rdf:about="http://creativecommons.org/licenses/by-sa/4.0/">
        <cc:permits rdf:resource="http://creativecommons.org/ns#Reproduction" />
        <cc:permits rdf:resource="http://creativecommons.org/ns#Distribution" />
        <cc:requires rdf:resource="http://creativecommons.org/ns#Notice" />
        <cc:requires rdf:resource="http://creativecommons.org/ns#Attribution" />
        <cc:permits rdf:resource="http://creativecommons.org/ns#DerivativeWorks" />
        <cc:requires rdf:resource="http://creativecommons.org/ns#ShareAlike" />
      </cc:License>
    </rdf:RDF>
  </metadata>
</svg>
